{
  "accessors": [
    {
      "bufferView": 3,
      "componentType": 5126,
      "count": 189,
      "max": [
        0.5631835460662842,
        1.1256181001663208,
        0.2613873779773712
      ],
      "min": [
        -0.5588913559913635,
        -1.121760368347168,
        -0.31031814217567444
      ],
      "type": "VEC3"
    },
    {
      "bufferView": 3,
      "byteOffset": 2268,
      "componentType": 5126,
      "count": 189,
      "max": [
        1.0,
        1.0,
        1.0
      ],
      "min": [
        -1.0,
        -1.0,
        -1.0
      ],
      "type": "VEC3"
    },
    {
      "bufferView": 2,
      "componentType": 5126,
      "count": 189,
      "max": [
        0.8738536834716797,
        0.9993001818656921
      ],
      "min": [
        0.0007629171013832092,
        -0.0005152862286195159
      ],
      "type": "VEC2"
    },
    {
      "bufferView": 1,
      "componentType": 5125,
      "count": 312,
      "type": "SCALAR"
    },
    {
      "bufferView": 5,
      "componentType": 5126,
      "count": 7,
      "max": [
        1.0,
        2.1060261090610766e-08,
        1.0000001192092896,
        0.0,
        0.003403531154617667,
        1.0,
        0.00947603676468134,
        0.0,
        1.0,
        2.7008889347257536e-08,
        1.0,
        0.0,
        0.018542183563113213,
        0.4211203455924988,
        0.42368802428245544,
        1.0
      ],
      "min": [
        4.377216100692749e-08,
        -0.003429901087656617,
        -1.0000001192092896,
        0.0,
        -9.313264603960647e-10,
        -1.0000001192092896,
        -4.2105941844283734e-08,
        0.0,
        -1.0,
        -0.009466498158872128,
        -1.3154931366443634e-07,
        0.0,
        -0.018542157486081123,
        -0.5619077086448669,
        0.0,
        1.0
      ],
      "type": "MAT4"
    },
    {
      "bufferView": 0,
      "componentType": 5123,
      "count": 189,
      "type": "VEC4"
    },
    {
      "bufferView": 4,
      "componentType": 5126,
      "count": 189,
      "max": [
        1.0,
        0.0,
        0.0,
        0.0
      ],
      "min": [
        1.0,
        0.0,
        0.0,
        0.0
      ],
      "type": "VEC4"
    }
  ],
  "asset": {
    "extras": {
      "author": "lewisglasgow2005 (https://sketchfab.com/lewisglasgow2005)",
      "license": "CC-BY-4.0 (http://creativecommons.org/licenses/by/4.0/)",
      "source": "https://sketchfab.com/3d-models/minecraft-player-rigged-96285d24681446f0b6273b1a68f49bca",
      "title": "Minecraft Player Rigged"
    },
    "generator": "Sketchfab-14.64.0",
    "version": "2.0"
  },
  "bufferViews": [
    {
      "buffer": 0,
      "byteLength": 1512,
      "byteStride": 8,
      "name": "shortBufferViews",
      "target": 34962
    },
    {
      "buffer": 0,
      "byteLength": 1248,
      "byteOffset": 1512,
      "name": "floatBufferViews",
      "target": 34963
    },
    {
      "buffer": 0,
      "byteLength": 1512,
      "byteOffset": 2760,
      "byteStride": 8,
      "name": "floatBufferViews",
      "target": 34962
    },
    {
      "buffer": 0,
      "byteLength": 4536,
      "byteOffset": 4272,
      "byteStride": 12,
      "name": "floatBufferViews",
      "target": 34962
    },
    {
      "buffer": 0,
      "byteLength": 3024,
      "byteOffset": 8808,
      "byteStride": 16,
      "name": "floatBufferViews",
      "target": 34962
    },
    {
      "buffer": 0,
      "byteLength": 448,
      "byteOffset": 11832,
      "name": "floatBufferViews"
    }
  ],
  "buffers": [
    {
      "byteLength": 12280,
      "uri": "playerRed.bin"
    }
  ],
  "images": [
    {
      "uri": "textures/skin_baseColorRed.png"
    }
  ],
  "materials": [
    {
      "doubleSided": true,
      "name": "skin",
      "pbrMetallicRoughness": {
        "baseColorTexture": {
          "index": 0
        },
        "metallicFactor": 0.0,
        "roughnessFactor": 0.5
      }
    }
  ],
  "meshes": [
    {
      "name": "Object_0",
      "primitives": [
        {
          "attributes": {
            "JOINTS_0": 5,
            "NORMAL": 1,
            "POSITION": 0,
            "TEXCOORD_0": 2,
            "WEIGHTS_0": 6
          },
          "indices": 3,
          "material": 0,
          "mode": 4
        }
      ]
    }
  ],
  "nodes": [
    {
      "children": [
        1
      ],
      "matrix": [
        1.0,
        0.0,
        0.0,
        0.0,
        0.0,
        2.220446049250313e-16,
        -1.0,
        0.0,
        0.0,
        1.0,
        2.220446049250313e-16,
        0.0,
        0.0,
        0.0,
        0.0,
        1.0
      ],
      "name": "Sketchfab_model"
    },
    {
      "children": [
        2
      ],
      "name": "root"
    },
    {
      "children": [
        3
      ],
      "matrix": [
        1.0,
        0.0,
        0.0,
        0.0,
        0.0,
        2.220446049250313e-16,
        1.0,
        0.0,
        0.0,
        -1.0,
        2.220446049250313e-16,
        0.0,
        0.0,
        0.0,
        0.0,
        1.0
      ],
      "name": "GLTF_SceneRootNode"
    },
    {
      "children": [
        4
      ],
      "matrix": [
        1.0,
        0.0,
        0.0,
        0.0,
        0.0,
        1.0,
        0.0,
        0.0,
        0.0,
        0.0,
        1.0,
        0.0,
        0.002146102488040924,
        0.13896328210830688,
        -0.01854214072227478,
        1.0
      ],
      "name": "Armature_9"
    },
    {
      "children": [
        5,
        7,
        6
      ],
      "name": "GLTF_created_0"
    },
    {
      "children": [
        8
      ],
      "name": "GLTF_created_0_rootJoint"
    },
    {
      "name": "arm.L_8"
    },
    {
      "mesh": 0,
      "name": "Object_7",
      "skin": 0
    },
    {
      "children": [
        9,
        10,
        11,
        12,
        13
      ],
      "name": "body_7",
      "rotation": [
        -0.0047356984578073025,
        0.0013920629862695932,
        0.0017083815764635801,
        0.9999863505363464
      ],
      "scale": [
        0.9999999403953552,
        0.9999999403953552,
        1.0
      ],
      "translation": [
        5.110950204723075e-11,
        -0.20272773504257202,
        1.4106220358467425e-10
      ]
    },
    {
      "name": "head_2",
      "rotation": [
        0.004738079849630594,
        4.4971454116193854e-08,
        -0.0017017872305586934,
        0.9999874234199524
      ],
      "scale": [
        0.9999998807907104,
        0.9999998807907104,
        0.9999998807907104
      ],
      "translation": [
        2.8673542706858512e-11,
        0.6257038116455078,
        2.787698960560192e-10
      ]
    },
    {
      "name": "arm.L_3",
      "rotation": [
        -0.7080814838409424,
        -0.0021406258456408978,
        0.706112802028656,
        0.004556671250611544
      ],
      "scale": [
        0.9999998807907104,
        0.9999997615814209,
        0.9999998211860657
      ],
      "translation": [
        0.42318812012672424,
        0.4834142327308655,
        0.0057615735568106174
      ]
    },
    {
      "name": "leg.L_4",
      "rotation": [
        -0.7080815434455872,
        -0.002140647964552045,
        0.7061127424240112,
        0.0045566498301923275
      ],
      "scale": [
        1.0,
        0.9999998211860657,
        1.0
      ],
      "translation": [
        0.13597914576530457,
        -0.2209654301404953,
        -0.0017110796179622412
      ]
    },
    {
      "name": "arm.R_5",
      "rotation": [
        -0.7061128616333008,
        0.004556672181934118,
        -0.7080814242362976,
        0.002140626311302185
      ],
      "scale": [
        1.0,
        1.0000003576278687,
        1.0
      ],
      "translation": [
        -0.4198874831199646,
        0.4863058626651764,
        0.003427995601668954
      ]
    },
    {
      "name": "leg.R_6",
      "rotation": [
        -0.7061129212379456,
        0.004556663334369659,
        -0.7080813646316528,
        0.0021406346932053566
      ],
      "scale": [
        0.9999998807907104,
        0.9999997615814209,
        0.9999998211860657
      ],
      "translation": [
        -0.13748018443584442,
        -0.22002746164798737,
        -0.002467995509505272
      ]
    }
  ],
  "samplers": [
    {
      "magFilter": 9728,
      "minFilter": 9986,
      "wrapS": 10497,
      "wrapT": 10497
    }
  ],
  "scene": 0,
  "scenes": [
    {
      "name": "Sketchfab_Scene",
      "nodes": [
        0
      ]
    }
  ],
  "skins": [
    {
      "inverseBindMatrices": 4,
      "joints": [
        5,
        8,
        9,
        10,
        11,
        12,
        13
      ],
      "skeleton": 5
    }
  ],
  "textures": [
    {
      "sampler": 0,
      "source": 0
    }
  ]
}
